<?xml version="1.0" standalone="no"?>
<!DOCTYPE svg PUBLIC "-//W3C//DTD SVG 20010904//EN"
 "http://www.w3.org/TR/2001/REC-SVG-20010904/DTD/svg10.dtd">
<svg version="1.0" xmlns="http://www.w3.org/2000/svg"
 width="625.000000pt" height="625.000000pt" viewBox="0 0 625.000000 625.000000"
 preserveAspectRatio="xMidYMid meet">
<metadata>
Created by potrace 1.14, written by Peter Selinger 2001-2017
</metadata>
<g transform="translate(0.000000,625.000000) scale(0.100000,-0.100000)"
fill="#000000" stroke="none">
<path d="M2761 4854 c-1 -5 -20 -11 -43 -13 -24 -1 -50 -3 -58 -5 -8 -1 -37
-7 -65 -11 -56 -10 -64 -12 -67 -14 -2 -2 -14 -4 -28 -6 -113 -15 -353 -106
-397 -151 -8 -8 -21 -14 -29 -14 -8 0 -14 -4 -14 -10 0 -5 -4 -10 -10 -10 -15
0 -143 -119 -204 -190 -61 -71 -141 -217 -206 -375 -9 -21 -32 -92 -36 -110
-1 -5 -13 -42 -26 -82 -13 -39 -19 -69 -14 -65 7 3 6 0 0 -9 -11 -13 -16 -32
-30 -104 -3 -16 -7 -34 -8 -40 -6 -25 -26 -164 -33 -230 -5 -54 -16 -67 -49
-59 -11 3 -39 6 -62 7 -23 1 -42 4 -42 7 0 11 -274 9 -287 -1 -9 -8 -13 -8
-13 -1 0 7 -13 6 -40 -3 -22 -8 -40 -12 -40 -9 0 3 -13 -4 -29 -15 -16 -12
-34 -21 -39 -21 -16 0 -102 -90 -102 -106 0 -8 -4 -14 -8 -14 -16 0 -51 -105
-69 -200 -2 -14 -8 -44 -13 -67 -6 -23 -12 -61 -15 -85 -3 -24 -7 -54 -10 -68
-18 -93 -27 -405 -14 -470 26 -126 33 -156 38 -165 3 -5 7 -18 8 -28 2 -10 10
-29 19 -42 9 -14 13 -25 10 -25 -4 0 -2 -6 4 -12 39 -47 50 -62 50 -71 0 -6 3
-8 6 -5 3 3 20 -7 37 -23 18 -17 43 -32 57 -36 14 -3 30 -9 35 -13 11 -8 99
-30 131 -32 20 -2 44 -21 44 -35 1 -26 23 -83 32 -83 6 0 8 -3 5 -6 -6 -6 24
-71 48 -102 16 -22 80 -85 116 -115 55 -45 57 -47 74 -47 8 0 15 -4 15 -9 0
-10 39 -27 53 -23 4 1 7 -2 7 -7 0 -10 123 -51 171 -56 19 -2 34 -4 34 -5 0
-7 162 -7 181 0 14 6 26 5 29 0 4 -6 18 -4 36 6 17 8 33 13 37 10 3 -3 10 -2
16 3 6 5 28 14 49 21 20 6 35 16 31 21 -3 5 -2 9 3 8 22 -4 41 3 61 21 12 11
24 20 27 20 14 0 95 78 95 91 0 6 5 7 10 4 6 -3 10 0 10 9 0 8 3 16 8 18 12 5
64 78 55 78 -4 0 -3 4 2 8 6 4 20 25 31 47 22 40 22 40 85 42 194 6 374 12
374 13 0 0 56 3 125 5 296 11 340 14 350 20 5 3 10 0 10 -7 0 -8 3 -9 8 -3 4
6 34 11 67 12 33 1 135 5 228 8 146 5 167 4 167 -10 0 -18 18 -51 43 -79 9
-11 17 -26 17 -33 0 -8 5 -11 10 -8 6 3 10 2 10 -3 0 -18 72 -82 83 -75 7 3 9
3 5 -2 -9 -9 6 -21 73 -58 26 -15 49 -23 53 -20 3 4 6 2 6 -4 0 -6 15 -14 33
-18 17 -4 37 -9 42 -11 57 -17 118 -26 200 -28 33 0 63 -5 67 -11 5 -6 8 -6 8
1 0 6 6 11 13 11 47 0 153 19 170 30 6 4 15 8 20 9 4 1 8 2 10 4 1 1 10 3 19
5 32 6 130 58 135 72 3 7 9 11 13 8 5 -3 16 5 24 17 9 12 16 19 16 15 0 -17
80 85 110 141 29 52 38 60 79 72 25 8 49 13 53 12 6 -1 74 20 108 35 8 3 17 7
20 8 3 0 23 10 45 22 115 61 156 169 190 503 6 53 6 322 1 365 -2 17 -8 57
-12 90 -4 33 -7 68 -8 78 0 9 -4 17 -9 17 -5 0 -7 12 -4 26 3 16 0 28 -9 31
-8 3 -12 9 -9 13 6 10 -35 118 -55 146 -42 57 -182 118 -296 128 -16 1 -34 5
-40 8 -28 18 -453 30 -533 15 -54 -9 -57 -4 -78 158 -4 28 -7 58 -7 68 0 9 -3
17 -6 17 -3 0 -5 11 -5 26 1 21 -21 146 -40 229 -3 11 -7 29 -9 40 -11 50 -61
200 -68 203 -4 2 -8 11 -8 21 0 9 -7 27 -16 39 -8 12 -12 22 -9 22 4 0 -2 12
-12 28 -31 47 -43 66 -56 92 -16 32 -51 77 -127 159 -72 78 -286 231 -323 231
-8 0 -20 7 -27 15 -7 9 -15 13 -18 10 -3 -3 -13 2 -22 10 -10 9 -21 15 -26 14
-5 -1 -22 3 -39 10 -40 17 -174 59 -205 65 -14 3 -25 5 -25 6 0 4 -162 30
-202 32 -18 1 -33 6 -33 11 0 4 -6 5 -12 1 -16 -10 -50 -10 -65 -1 -6 4 -14 3
-17 -2 -3 -5 -21 -6 -40 -1 -24 5 -37 4 -40 -4 -2 -6 -5 -7 -5 -1 -1 10 -38
11 -108 2 -18 -3 -34 1 -37 7 -3 7 -5 7 -5 0z m404 -397 c36 -1 65 -6 65 -10
0 -4 15 -7 33 -6 17 2 42 -3 55 -10 12 -6 22 -10 22 -7 0 6 94 -20 130 -36 57
-25 95 -43 100 -48 3 -3 25 -18 50 -34 57 -37 144 -127 165 -172 9 -19 21 -34
27 -34 6 0 9 -2 6 -6 -3 -3 5 -26 18 -51 13 -26 21 -50 18 -55 -3 -4 -1 -8 4
-8 9 0 26 -55 23 -72 0 -5 3 -8 9 -8 5 0 7 -6 4 -14 -3 -8 -1 -23 5 -34 6 -11
14 -37 17 -58 3 -20 9 -47 14 -58 4 -12 8 -25 9 -31 10 -65 15 -85 22 -85 5 0
5 -10 0 -22 -5 -13 -5 -32 -1 -43 9 -24 7 -55 -4 -73 -4 -7 -2 -12 4 -12 6 0
9 -4 6 -8 -3 -5 -7 -32 -10 -62 -8 -86 0 -84 -283 -85 -137 -1 -248 -3 -248
-5 0 -4 -202 -13 -246 -11 -35 1 -85 54 -94 98 -3 20 -8 95 -11 167 -2 72 -7
147 -10 166 -3 19 -7 64 -10 100 -3 36 -7 81 -9 100 -5 48 -16 174 -20 235 -1
28 -6 105 -10 172 l-7 121 23 4 c13 2 34 3 46 1 12 -2 52 -4 88 -6z m-430 -39
c3 -13 5 -32 4 -43 0 -11 2 -99 6 -195 4 -96 7 -205 9 -242 1 -37 5 -70 8 -74
4 -3 3 -16 -2 -29 -5 -13 -6 -25 -3 -28 5 -6 12 -117 17 -312 3 -102 1 -136
-12 -160 -8 -16 -19 -33 -24 -36 -11 -7 -121 -4 -288 8 -63 4 -197 8 -298 8
-100 0 -182 3 -182 7 0 4 -9 10 -20 13 -11 4 -18 11 -15 16 4 5 1 9 -6 9 -7 0
-9 3 -6 7 4 3 2 12 -4 19 -11 14 -13 182 -3 239 3 17 7 41 9 55 1 14 4 25 5
25 2 0 7 19 15 60 3 16 9 32 13 35 4 3 8 19 9 35 5 54 6 60 14 66 5 3 10 18
13 35 2 16 18 61 35 99 18 39 32 72 31 74 -1 2 3 7 8 10 6 3 12 12 14 20 14
58 229 241 284 241 7 0 14 4 14 8 0 5 6 9 13 10 52 5 75 10 84 15 6 4 32 9 58
12 26 2 49 6 51 7 1 2 34 4 73 6 66 3 71 2 76 -20z"/>
<path d="M5679 3519 c-13 -10 -28 -19 -32 -19 -4 0 -18 -11 -31 -25 -13 -14
-26 -25 -30 -25 -12 0 -140 -120 -128 -120 4 0 1 -4 -7 -9 -20 -13 1 -61 27
-61 10 0 48 29 85 65 37 35 67 62 67 60 0 -3 9 3 19 13 10 9 35 30 55 45 38
31 45 67 16 85 -12 7 -23 5 -41 -9z"/>
<path d="M5885 3284 c-32 -17 -129 -46 -157 -47 -10 -1 -18 -4 -18 -8 0 -6
-38 -16 -77 -21 -7 -1 -13 -5 -13 -10 0 -4 -7 -8 -15 -8 -8 0 -19 -9 -25 -21
-10 -17 -8 -24 10 -39 20 -18 25 -18 51 -4 16 8 29 12 29 8 0 -4 6 -2 13 4 12
10 76 27 90 24 4 -1 7 2 7 6 0 4 8 8 18 9 25 2 46 8 114 36 30 13 42 41 27 69
-12 22 -16 22 -54 2z"/>
<path d="M5526 2985 c-9 -9 -16 -21 -16 -26 0 -15 27 -40 47 -44 10 -2 38 -9
63 -15 25 -6 56 -14 70 -16 26 -6 42 -11 99 -37 37 -16 71 -12 71 9 0 8 6 14
12 14 19 0 -34 49 -57 53 -11 2 -33 10 -50 16 -27 12 -48 18 -82 25 -7 1 -16
5 -19 9 -4 4 -19 7 -34 7 -15 0 -30 3 -34 7 -14 14 -55 13 -70 -2z"/>
</g>
</svg>
